<svg version="1.2" xmlns="http://www.w3.org/2000/svg" viewBox="0 0 300 271" width="300" height="271">
	<style>
		.s0 { fill: #000000 } 
	</style>
	<path class="s0" d="m59.63 94.12c1.83 0 0.37 60.42 1.1 69.21 0.37 7.33 15.37 53.84 17.56 56.4 2.93 4.03 12.08 15.75 13.91 16.85 3.29 1.46 6.95 0.73 7.31-1.47 0.37-1.83 1.1-22.34 2.2-31.49 1.09-8.79-5.86-29.67-4.39-33.7 1.46-4.02 5.12-19.41 5.12-22.7 0-3.3-9.88-61.16-9.15-66.65 0.37-4.03 1.83 0.36 1.83 0.36 0 0 10.61 67.02 11.34 78.74 0.74 11.72-6.95 86.79-5.85 93.75 1.1 6.96 8.05 16.85 13.54 16.85 5.48 0 17.92-3.3 19.39-17.21 1.46-13.92 7.31-57.5 9.14-66.29 2.2-9.52-2.92-72.51-3.66-79.1-0.36-5.13 0.74-3.3 1.47-1.83 0.36 0.36 0.36 1.83 0.73 2.56 0.37 4.39 1.83 23.07 1.83 23.07 0 0 7.68 0.73 10.61 1.83 1.83 0.74 14.27 6.23 16.1 10.99 2.92 6.96 0.36 42.85-3.3 57.5-3.66 14.64 8.78 20.87 17.93 19.04 9.15-1.83 12.07-9.52 15-14.65 2.93-5.13 10.61-16.11 10.61-26 0-9.89 0.37-41.38 0.37-48.34 0-2.93-0.74-10.62-2.57-13.19-2.19-2.56-28.9-30.76-27.43-33.69 1.09-2.2 4.39 3.66 6.58 6.23 2.2 2.2 21.95 25.27 23.42 26.73 1.09 1.47 3.65 16.48 2.56 31.86-0.37 6.23 24.87 15.75 33.66 17.95 8.78 2.56 40.61 2.56 45.73-6.59 4.75-9.16 5.12-11.36 4.39-15.39-0.73-4.02-5.86-8.79-14.64-9.88-8.78-1.1-30.36-3.3-35.85-7.69-5.49-4.4-58.17-71.05-65.85-86.07-8.05-15.74-15.37-31.49-21.22-36.98-6.95-6.96-55.61-6.59-83.05 12.45 0 0-19.03 17.21-32.93 50.54-13.9 33.32-37.32 40.28-38.78 48.7-3.66 11.36-4.39 36.62-4.39 45.05 0 1.83 0.73 3.66 1.83 5.12 5.49 6.96 22.32 27.84 28.9 28.57 5.12 0.73 10.61 0.37 13.17-2.56 2.56-3.3 4.39-12.46 0.73-17.22-4.75-6.59-13.53-15.01-16.09-17.94-1.83-2.2 1.83-20.14 3.29-23.8 1.46-4.4 22.32-8.06 27.07-8.06-0.36-7.69 0.37-27.1 0-29.3 0 0-0.36-2.56 0.73-2.56z"/>
</svg>